<svg width="179" height="127" version="1.1" xmlns="http://www.w3.org/2000/svg" desc="Created with imagetracer.js version 1.2.6" ><path fill="rgb(236,239,248)" stroke="rgb(236,239,248)" stroke-width="1" opacity="0.5058823529411764" d="M 78.5 2 L 86 2.5 L 78.5 3 L 65.5 7 Q 53.5 12.5 45 21.5 L 40.5 27 L 43 23.5 L 49.5 16 Q 60.8 5.8 78.5 2 Z " /><path fill="rgb(236,239,248)" stroke="rgb(236,239,248)" stroke-width="1" opacity="0.5058823529411764" d="M 94.5 2 L 101.5 2 L 119.5 8 Q 131.1 14.5 139 24.5 L 128.5 15 L 112.5 6 L 101.5 3 L 94.5 3 L 94.5 2 Z " /><path fill="rgb(236,239,248)" stroke="rgb(236,239,248)" stroke-width="1" opacity="0.5058823529411764" d="M 139.5 26 Q 141.8 25.3 141 27.5 L 146 35.5 L 144 34.5 L 139.5 26 Z " /><path fill="rgb(236,239,248)" stroke="rgb(236,239,248)" stroke-width="1" opacity="0.5058823529411764" d="M 39.5 28 L 38.5 30 L 39.5 28 Z " /><path fill="rgb(236,239,248)" stroke="rgb(236,239,248)" stroke-width="1" opacity="0.5058823529411764" d="M 37.5 31 L 37 32.5 L 35.5 35 L 36 33.5 L 37.5 31 Z " /><path fill="rgb(236,239,248)" stroke="rgb(236,239,248)" stroke-width="1" opacity="0.5058823529411764" d="M 34.5 36 L 34 37.5 L 31.5 45 L 31 42.5 L 34.5 36 Z " /><path fill="rgb(236,239,248)" stroke="rgb(236,239,248)" stroke-width="1" opacity="0.5058823529411764" d="M 146.5 37 L 148 40.5 L 147 40.5 L 146.5 37 Z " /><path fill="rgb(236,239,248)" stroke="rgb(236,239,248)" stroke-width="1" opacity="0.5058823529411764" d="M 148.5 42 L 150 46.5 L 149 46.5 L 148.5 42 Z " /><path fill="rgb(236,239,248)" stroke="rgb(236,239,248)" stroke-width="1" opacity="0.5058823529411764" d="M 29.5 49 L 30 52.5 L 29 52.5 L 29.5 49 Z " /><path fill="rgb(236,239,248)" stroke="rgb(236,239,248)" stroke-width="1" opacity="0.5058823529411764" d="M 151.5 51 L 152 56.5 L 151 56.5 L 151.5 51 Z " /><path fill="rgb(236,239,248)" stroke="rgb(236,239,248)" stroke-width="1" opacity="0.5058823529411764" d="M 28.5 55 L 29 59.5 L 28 59.5 L 28.5 55 Z " /><path fill="rgb(236,239,248)" stroke="rgb(236,239,248)" stroke-width="1" opacity="0.5058823529411764" d="M 28.5 69 L 29 72.5 L 28 72.5 L 28.5 69 Z " /><path fill="rgb(236,239,248)" stroke="rgb(236,239,248)" stroke-width="1" opacity="0.5058823529411764" d="M 151.5 71 L 152 76.5 L 151 76.5 L 151.5 71 Z " /><path fill="rgb(236,239,248)" stroke="rgb(236,239,248)" stroke-width="1" opacity="0.5058823529411764" d="M 29.5 75 L 30 78.5 L 29 78.5 L 29.5 75 Z " /><path fill="rgb(236,239,248)" stroke="rgb(236,239,248)" stroke-width="1" opacity="0.5058823529411764" d="M 149.5 81 L 150 84.5 L 146.5 91 L 146 89.5 L 149.5 81 Z " /><path fill="rgb(236,239,248)" stroke="rgb(236,239,248)" stroke-width="1" opacity="0.5058823529411764" d="M 31.5 83 L 33 87.5 L 32 87.5 L 31.5 83 Z " /><path fill="rgb(236,239,248)" stroke="rgb(236,239,248)" stroke-width="1" opacity="0.5058823529411764" d="M 33.5 89 L 35 91.5 L 33 90.5 L 33.5 89 Z " /><path fill="rgb(236,239,248)" stroke="rgb(236,239,248)" stroke-width="1" opacity="0.5058823529411764" d="M 144.5 94 L 144 95.5 L 134 110 L 119.5 120 L 106.5 125 L 96.5 126 L 96.5 125 L 106.5 124 L 122.5 117 L 139 102.5 L 144.5 94 Z " /><path fill="rgb(236,239,248)" stroke="rgb(236,239,248)" stroke-width="1" opacity="0.5058823529411764" d="M 36.5 95 L 49.5 111 Q 62.3 123.2 85 125.5 L 78.5 126 Q 54.8 120.8 42 104.5 L 40 101.5 L 36.5 95 Z " /><path fill="rgb(0,0,0)" stroke="rgb(0,0,0)" stroke-width="1" opacity="0" d="M 0 0 L 179 0 L 179 127 L 0 127 L 0 0 Z M 79 2 Q 61 6 50 16 Q 39 25 33 38 L 28 56 L 28 73 Q 30 74 29 79 L 33 91 L 40 102 L 42 105 Q 55 121 79 126 L 103 126 L 107 125 L 122 119 L 134 110 L 141 102 L 148 90 L 152 77 L 152 52 L 148 39 L 141 28 L 139 25 Q 129 12 113 5 L 102 2 L 79 2 Z " /><path fill="rgb(234,239,249)" stroke="rgb(234,239,249)" stroke-width="1" opacity="0.996078431372549" d="M 86.5 2 L 94 2.5 L 86.5 3 L 86.5 2 Z " /><path fill="rgb(234,239,249)" stroke="rgb(234,239,249)" stroke-width="1" opacity="0.996078431372549" d="M 78.5 3 L 81 3.5 L 78.5 4 L 78.5 3 Z " /><path fill="rgb(234,239,249)" stroke="rgb(234,239,249)" stroke-width="1" opacity="0.996078431372549" d="M 99.5 3 L 102 3.5 L 99.5 4 L 99.5 3 Z " /><path fill="rgb(234,239,249)" stroke="rgb(234,239,249)" stroke-width="1" opacity="0.996078431372549" d="M 59.5 10 L 58.5 12 L 59.5 10 Z " /><path fill="rgb(234,239,249)" stroke="rgb(234,239,249)" stroke-width="1" opacity="0.996078431372549" d="M 128.5 15 L 132.5 20 L 128.5 15 Z " /><path fill="rgb(234,239,249)" stroke="rgb(234,239,249)" stroke-width="1" opacity="0.996078431372549" d="M 47.5 19 L 45.5 22 L 47.5 19 Z " /><path fill="rgb(234,239,249)" stroke="rgb(234,239,249)" stroke-width="1" opacity="0.996078431372549" d="M 134.5 21 L 138.5 26 L 134.5 21 Z " /><path fill="rgb(234,239,249)" stroke="rgb(234,239,249)" stroke-width="1" opacity="0.996078431372549" d="M 122.5 23 L 124 23.5 L 109.5 36 L 116.5 28 L 122.5 23 Z " /><path fill="rgb(234,239,249)" stroke="rgb(234,239,249)" stroke-width="1" opacity="0.996078431372549" d="M 126.5 23 L 129 24.5 L 127.5 24 L 126.5 23 Z " /><path fill="rgb(234,239,249)" stroke="rgb(234,239,249)" stroke-width="1" opacity="0.996078431372549" d="M 42.5 25 L 40.5 28 L 42.5 25 Z " /><path fill="rgb(234,239,249)" stroke="rgb(234,239,249)" stroke-width="1" opacity="0.996078431372549" d="M 129.5 26 L 130 28 Q 133.8 27.3 135 30.5 L 132.5 29 L 129.5 29 L 105.5 53 L 129 28.5 L 129.5 26 Z " /><path fill="rgb(234,239,249)" stroke="rgb(234,239,249)" stroke-width="1" opacity="0.996078431372549" d="M 124.5 27 L 104.5 48 L 102.5 48 L 100 49.5 L 99.5 51 L 99 49.5 L 117 35 Q 115.9 32.3 118.5 33 L 124.5 27 Z " /><path fill="rgb(234,239,249)" stroke="rgb(234,239,249)" stroke-width="1" opacity="0.996078431372549" d="M 39.5 29 L 38.5 31 L 39.5 29 Z " /><path fill="rgb(234,239,249)" stroke="rgb(234,239,249)" stroke-width="1" opacity="0.996078431372549" d="M 46.5 29 L 51 29.5 L 42.5 32 L 43.5 30 L 46.5 29 Z " /><path fill="rgb(234,239,249)" stroke="rgb(234,239,249)" stroke-width="1" opacity="0.996078431372549" d="M 54.5 29 L 58.5 29 L 67.5 33 L 80 43.5 L 74.5 39 L 67.5 34 L 58.5 30 L 54.5 30 L 54.5 29 Z " /><path fill="rgb(234,239,249)" stroke="rgb(234,239,249)" stroke-width="1" opacity="0.996078431372549" d="M 135.5 32 L 136 34 L 138 34.5 L 134.5 36 L 135 34.5 L 135.5 32 Z " /><path fill="rgb(234,239,249)" stroke="rgb(234,239,249)" stroke-width="1" opacity="0.996078431372549" d="M 50.5 33 L 55 33.5 L 50.5 34 L 50.5 33 Z " /><path fill="rgb(234,239,249)" stroke="rgb(234,239,249)" stroke-width="1" opacity="0.996078431372549" d="M 130.5 33 L 132 33.5 L 129 35 L 129 37 L 127 37 Q 128.1 39.7 125.5 39 L 124 42 L 122 42 L 122 44 L 120 44 Q 121.1 46.7 118.5 46 L 117 49 L 115 49 L 115 51 L 113 51 Q 114.1 53.7 111.5 53 L 110 56 Q 107 55 108 58 L 103.5 58 L 102.5 56 L 106.5 57 L 130.5 33 Z " /><path fill="rgb(234,239,249)" stroke="rgb(234,239,249)" stroke-width="1" opacity="0.996078431372549" d="M 39.5 34 L 40 36.5 L 39 36.5 L 39.5 34 Z " /><path fill="rgb(234,239,249)" stroke="rgb(234,239,249)" stroke-width="1" opacity="0.996078431372549" d="M 46.5 34 L 49 34.5 L 46 35 L 46 36.5 L 81 71.5 L 44 35.5 L 46.5 34 Z " /><path fill="rgb(234,239,249)" stroke="rgb(234,239,249)" stroke-width="1" opacity="0.996078431372549" d="M 56.5 34 Q 66.8 35.8 72 42.5 L 73.5 45 L 75 44.5 Q 72.8 45.8 75.5 47 L 80 50.5 L 79.5 52 L 82 53.5 L 81.5 56 L 80.5 53 L 77 50.5 L 77.5 49 L 69 41.5 L 68.5 40 Q 67 42.5 65.5 39 L 59.5 36 L 58 36.5 L 58.5 35 Q 55.5 35.5 56.5 34 Z " /><path fill="rgb(234,239,249)" stroke="rgb(234,239,249)" stroke-width="1" opacity="0.996078431372549" d="M 35.5 35 L 36 36.5 L 34 37.5 L 35.5 35 Z " /><path fill="rgb(234,239,249)" stroke="rgb(234,239,249)" stroke-width="1" opacity="0.996078431372549" d="M 107.5 36 L 101.5 43 L 96 47.5 L 95.5 49 L 95 47.5 L 107.5 36 Z " /><path fill="rgb(234,239,249)" stroke="rgb(234,239,249)" stroke-width="1" opacity="0.996078431372549" d="M 41.5 39 L 43.5 42 L 41.5 39 Z " /><path fill="rgb(234,239,249)" stroke="rgb(234,239,249)" stroke-width="1" opacity="0.996078431372549" d="M 136.5 39 L 134 42.5 L 127.5 50 L 126 50.5 L 127 51.5 L 120.5 58 L 119.5 57 L 112.5 64 Q 107.8 64.8 107 61.5 L 106 59.5 L 108 60.5 L 109.5 63 L 112.5 63 L 136.5 39 Z " /><path fill="rgb(234,239,249)" stroke="rgb(234,239,249)" stroke-width="1" opacity="0.996078431372549" d="M 58.5 40 L 67 45.5 L 64.5 44 Q 58.9 43.2 58.5 40 Z " /><path fill="rgb(234,239,249)" stroke="rgb(234,239,249)" stroke-width="1" opacity="0.996078431372549" d="M 139.5 42 L 138.5 44 L 139.5 42 Z " /><path fill="rgb(234,239,249)" stroke="rgb(234,239,249)" stroke-width="1" opacity="0.996078431372549" d="M 45.5 43 L 46.5 45 L 45.5 43 Z " /><path fill="rgb(234,239,249)" stroke="rgb(234,239,249)" stroke-width="1" opacity="0.996078431372549" d="M 48.5 45 L 51.5 49 L 48.5 45 Z " /><path fill="rgb(234,239,249)" stroke="rgb(234,239,249)" stroke-width="1" opacity="0.996078431372549" d="M 80.5 45 L 83.5 49 L 80.5 45 Z " /><path fill="rgb(234,239,249)" stroke="rgb(234,239,249)" stroke-width="1" opacity="0.996078431372549" d="M 137.5 45 L 131.5 52 L 137.5 45 Z " /><path fill="rgb(234,239,249)" stroke="rgb(234,239,249)" stroke-width="1" opacity="0.996078431372549" d="M 68.5 46 L 72.5 51 L 68.5 46 Z " /><path fill="rgb(234,239,249)" stroke="rgb(234,239,249)" stroke-width="1" opacity="0.996078431372549" d="M 30.5 48 L 31 50.5 L 30 50.5 L 30.5 48 Z " /><path fill="rgb(234,239,249)" stroke="rgb(234,239,249)" stroke-width="1" opacity="0.996078431372549" d="M 53.5 50 L 77.5 74 L 79.5 74 L 81.5 73 L 62.5 93 L 78.5 75 L 53.5 50 Z " /><path fill="rgb(234,239,249)" stroke="rgb(234,239,249)" stroke-width="1" opacity="0.996078431372549" d="M 84.5 50 L 85.5 52 L 84.5 50 Z " /><path fill="rgb(234,239,249)" stroke="rgb(234,239,249)" stroke-width="1" opacity="0.996078431372549" d="M 150.5 50 L 151 53.5 L 150 53.5 L 150.5 50 Z " /><path fill="rgb(234,239,249)" stroke="rgb(234,239,249)" stroke-width="1" opacity="0.996078431372549" d="M 73.5 52 L 75.5 55 L 73.5 52 Z " /><path fill="rgb(234,239,249)" stroke="rgb(234,239,249)" stroke-width="1" opacity="0.996078431372549" d="M 130.5 53 L 124.5 60 L 130.5 53 Z " /><path fill="rgb(234,239,249)" stroke="rgb(234,239,249)" stroke-width="1" opacity="0.996078431372549" d="M 87.5 55 L 89 57.5 L 88 57.5 L 87.5 55 Z " /><path fill="rgb(234,239,249)" stroke="rgb(234,239,249)" stroke-width="1" opacity="0.996078431372549" d="M 94.5 55 L 95 57.5 L 94 57.5 L 94.5 55 Z " /><path fill="rgb(234,239,249)" stroke="rgb(234,239,249)" stroke-width="1" opacity="0.996078431372549" d="M 76.5 56 L 77.5 58 L 76.5 56 Z " /><path fill="rgb(234,239,249)" stroke="rgb(234,239,249)" stroke-width="1" opacity="0.996078431372549" d="M 83.5 56 L 85 58.5 L 83 57.5 L 83.5 56 Z " /><path fill="rgb(234,239,249)" stroke="rgb(234,239,249)" stroke-width="1" opacity="0.996078431372549" d="M 151.5 57 L 152 59.5 L 151 59.5 L 151.5 57 Z " /><path fill="rgb(234,239,249)" stroke="rgb(234,239,249)" stroke-width="1" opacity="0.996078431372549" d="M 81.5 58 L 80.5 60 L 79 59.5 L 81.5 58 Z " /><path fill="rgb(234,239,249)" stroke="rgb(234,239,249)" stroke-width="1" opacity="0.996078431372549" d="M 119.5 59 L 113.5 66 L 103 65.5 L 113.5 65 L 119.5 59 Z " /><path fill="rgb(234,239,249)" stroke="rgb(234,239,249)" stroke-width="1" opacity="0.996078431372549" d="M 28.5 60 L 29 62.5 L 28 62.5 L 28.5 60 Z " /><path fill="rgb(234,239,249)" stroke="rgb(234,239,249)" stroke-width="1" opacity="0.996078431372549" d="M 89.5 60 L 91.5 64 L 93.5 61 L 94 62.5 Q 92 67 90 63.5 L 89.5 60 Z " /><path fill="rgb(234,239,249)" stroke="rgb(234,239,249)" stroke-width="1" opacity="0.996078431372549" d="M 85.5 61 L 87 64.5 L 86 64.5 L 85.5 61 Z " /><path fill="rgb(234,239,249)" stroke="rgb(234,239,249)" stroke-width="1" opacity="0.996078431372549" d="M 123.5 61 L 115.5 70 L 114 69.5 L 123.5 61 Z " /><path fill="rgb(234,239,249)" stroke="rgb(234,239,249)" stroke-width="1" opacity="0.996078431372549" d="M 97.5 63 L 97 64.5 L 83.5 79 L 82 78.5 L 96 65.5 L 97.5 63 Z " /><path fill="rgb(234,239,249)" stroke="rgb(234,239,249)" stroke-width="1" opacity="0.996078431372549" d="M 28.5 65 L 29 68.5 L 28 68.5 L 28.5 65 Z " /><path fill="rgb(234,239,249)" stroke="rgb(234,239,249)" stroke-width="1" opacity="0.996078431372549" d="M 100.5 66 L 102 66.5 L 96 71.5 L 95.5 73 L 95 71.5 L 97 68 L 100.5 66 Z " /><path fill="rgb(234,239,249)" stroke="rgb(234,239,249)" stroke-width="1" opacity="0.996078431372549" d="M 87.5 68 L 84.5 72 L 83 71.5 L 87.5 68 Z " /><path fill="rgb(234,239,249)" stroke="rgb(234,239,249)" stroke-width="1" opacity="0.996078431372549" d="M 151.5 68 L 152 70.5 L 151 70.5 L 151.5 68 Z " /><path fill="rgb(234,239,249)" stroke="rgb(234,239,249)" stroke-width="1" opacity="0.996078431372549" d="M 103.5 70 L 107 70.5 L 103.5 71 L 103.5 70 Z " /><path fill="rgb(234,239,249)" stroke="rgb(234,239,249)" stroke-width="1" opacity="0.996078431372549" d="M 108.5 70 L 113 70.5 L 108.5 71 L 108.5 70 Z " /><path fill="rgb(234,239,249)" stroke="rgb(234,239,249)" stroke-width="1" opacity="0.996078431372549" d="M 101.5 71 L 98.5 75 L 95.5 76 L 92.5 75 L 87 79.5 L 92.5 74 L 94.5 74 L 96.5 74 Q 101 74.5 101.5 71 Z " /><path fill="rgb(234,239,249)" stroke="rgb(234,239,249)" stroke-width="1" opacity="0.996078431372549" d="M 150.5 74 L 151 77.5 L 150 77.5 L 150.5 74 Z " /><path fill="rgb(234,239,249)" stroke="rgb(234,239,249)" stroke-width="1" opacity="0.996078431372549" d="M 97.5 76 L 100.5 80 L 97.5 76 Z " /><path fill="rgb(234,239,249)" stroke="rgb(234,239,249)" stroke-width="1" opacity="0.996078431372549" d="M 30.5 77 L 31 79.5 L 30 79.5 L 30.5 77 Z " /><path fill="rgb(234,239,249)" stroke="rgb(234,239,249)" stroke-width="1" opacity="0.996078431372549" d="M 93.5 79 L 94.5 81 L 92 80.5 L 93.5 79 Z " /><path fill="rgb(234,239,249)" stroke="rgb(234,239,249)" stroke-width="1" opacity="0.996078431372549" d="M 102.5 80 L 104.5 83 L 102.5 80 Z " /><path fill="rgb(234,239,249)" stroke="rgb(234,239,249)" stroke-width="1" opacity="0.996078431372549" d="M 86.5 81 L 75.5 93 L 86.5 81 Z " /><path fill="rgb(234,239,249)" stroke="rgb(234,239,249)" stroke-width="1" opacity="0.996078431372549" d="M 96.5 81 L 103 86.5 L 100.5 85 L 96.5 81 Z " /><path fill="rgb(234,239,249)" stroke="rgb(234,239,249)" stroke-width="1" opacity="0.996078431372549" d="M 78.5 82 L 80 82.5 L 65 96.5 L 66.5 100 L 68 100.5 L 66.5 101 Q 63.5 100.5 64 96.5 L 78.5 82 Z " /><path fill="rgb(234,239,249)" stroke="rgb(234,239,249)" stroke-width="1" opacity="0.996078431372549" d="M 92.5 82 L 110.5 100 L 112.5 100 L 114 96.5 L 109.5 91 L 115 96.5 L 115 98.5 Q 114.5 101.5 110.5 101 L 92.5 82 Z " /><path fill="rgb(234,239,249)" stroke="rgb(234,239,249)" stroke-width="1" opacity="0.996078431372549" d="M 106.5 83 L 108.5 86 L 106.5 83 Z " /><path fill="rgb(234,239,249)" stroke="rgb(234,239,249)" stroke-width="1" opacity="0.996078431372549" d="M 88.5 85 L 80.5 94 L 88.5 85 Z " /><path fill="rgb(234,239,249)" stroke="rgb(234,239,249)" stroke-width="1" opacity="0.996078431372549" d="M 110.5 86 L 115.5 92 L 110.5 86 Z " /><path fill="rgb(234,239,249)" stroke="rgb(234,239,249)" stroke-width="1" opacity="0.996078431372549" d="M 104.5 87 L 107.5 91 L 104.5 87 Z " /><path fill="rgb(234,239,249)" stroke="rgb(234,239,249)" stroke-width="1" opacity="0.996078431372549" d="M 92.5 89 L 108.5 104 L 112.5 105 L 116.5 102 L 114.5 105 L 110.5 106 L 92.5 90 L 92.5 89 Z " /><path fill="rgb(234,239,249)" stroke="rgb(234,239,249)" stroke-width="1" opacity="0.996078431372549" d="M 34.5 90 L 36 92.5 L 35 92.5 L 34.5 90 Z " /><path fill="rgb(234,239,249)" stroke="rgb(234,239,249)" stroke-width="1" opacity="0.996078431372549" d="M 144.5 93 L 143.5 95 L 144.5 93 Z " /><path fill="rgb(234,239,249)" stroke="rgb(234,239,249)" stroke-width="1" opacity="0.996078431372549" d="M 36.5 94 L 37.5 96 L 36.5 94 Z " /><path fill="rgb(234,239,249)" stroke="rgb(234,239,249)" stroke-width="1" opacity="0.996078431372549" d="M 74.5 94 L 69.5 100 L 74.5 94 Z " /><path fill="rgb(234,239,249)" stroke="rgb(234,239,249)" stroke-width="1" opacity="0.996078431372549" d="M 60.5 95 L 61 100.5 L 60 100.5 L 60.5 95 Z " /><path fill="rgb(234,239,249)" stroke="rgb(234,239,249)" stroke-width="1" opacity="0.996078431372549" d="M 79.5 95 L 70.5 105 L 69 104.5 L 79.5 95 Z " /><path fill="rgb(234,239,249)" stroke="rgb(234,239,249)" stroke-width="1" opacity="0.996078431372549" d="M 118.5 95 L 119 99.5 L 117 100.5 L 118.5 95 Z " /><path fill="rgb(234,239,249)" stroke="rgb(234,239,249)" stroke-width="1" opacity="0.996078431372549" d="M 141.5 98 L 140.5 100 L 141.5 98 Z " /><path fill="rgb(234,239,249)" stroke="rgb(234,239,249)" stroke-width="1" opacity="0.996078431372549" d="M 138.5 102 L 136.5 105 L 138.5 102 Z " /><path fill="rgb(234,239,249)" stroke="rgb(234,239,249)" stroke-width="1" opacity="0.996078431372549" d="M 44.5 105 L 49.5 111 L 44.5 105 Z " /><path fill="rgb(234,239,249)" stroke="rgb(234,239,249)" stroke-width="1" opacity="0.996078431372549" d="M 129.5 111 L 128.5 113 L 129.5 111 Z " /><path fill="rgb(234,239,249)" stroke="rgb(234,239,249)" stroke-width="1" opacity="0.996078431372549" d="M 53.5 113 L 54.5 115 L 53.5 113 Z " /><path fill="rgb(234,239,249)" stroke="rgb(234,239,249)" stroke-width="1" opacity="0.996078431372549" d="M 58.5 116 L 59.5 118 L 58.5 116 Z " /><path fill="rgb(234,239,249)" stroke="rgb(234,239,249)" stroke-width="1" opacity="0.996078431372549" d="M 100.5 124 L 103 124.5 L 100.5 125 L 100.5 124 Z " /><path fill="rgb(234,239,249)" stroke="rgb(234,239,249)" stroke-width="1" opacity="0.996078431372549" d="M 85.5 125 L 96 125.5 L 85.5 126 L 85.5 125 Z " /><path fill="rgb(235,239,249)" stroke="rgb(235,239,249)" stroke-width="1" opacity="1" d="M 81.5 3 L 98.5 3 Q 99.8 5.3 104.5 4 L 123.5 12 L 134 20 L 142 30.5 L 148 41.5 Q 147.4 46.1 150 47.5 L 152 67.5 L 148 86.5 L 143 96.5 L 136 106 Q 133.3 104.9 134 107.5 L 131 109 Q 132.1 111.7 129.5 111 Q 121.2 119.2 108.5 123 L 99.5 125 L 80.5 125 L 66.5 121 L 52 113 Q 53.1 110.3 50.5 111 L 43 102 Q 40.3 103.1 41 100.5 L 36 93.5 L 31 82.5 L 28 63.5 L 29 62.5 L 29 54.5 L 33 40.5 Q 39.5 26.5 50.5 17 L 53.5 15 L 66.5 7 L 81.5 3 Z M 123 23 L 123 25 Q 122 27 121 25 L 117 28 L 117 30 Q 115 34 114 31 L 109 37 Q 107 41 106 38 L 101 42 L 101 44 Q 99 48 98 45 Q 95 46 97 48 L 96 47 L 95 50 L 95 52 L 94 56 L 95 59 Q 96 62 93 61 L 92 64 L 91 62 L 90 62 Q 91 60 88 59 L 89 58 L 88 55 Q 85 56 86 54 L 86 52 L 84 50 Q 81 49 83 48 L 80 45 L 74 40 L 75 39 L 74 38 Q 72 34 71 37 L 71 36 L 70 35 L 68 35 L 68 34 L 64 31 L 62 32 L 62 30 L 59 31 L 59 29 L 54 30 L 47 29 L 47 31 L 44 30 L 44 32 L 43 31 L 42 33 L 39 34 Q 37 38 41 37 L 52 49 Q 54 48 53 51 L 74 71 L 75 70 L 74 72 Q 75 74 77 72 Q 79 73 77 75 L 79 75 Q 80 78 82 74 L 81 73 L 81 72 L 61 51 L 60 52 L 56 49 L 57 48 Q 56 45 55 47 L 43 36 L 46 37 L 45 35 L 47 35 Q 50 36 49 34 L 51 34 L 56 33 L 56 35 L 60 34 L 60 37 L 59 36 L 58 41 L 60 40 L 60 42 L 62 41 L 62 43 L 64 42 L 63 44 L 65 44 L 67 44 L 68 47 L 74 51 Q 76 52 74 54 L 77 55 L 78 58 L 81 60 Q 83 59 81 58 L 82 56 L 80 54 L 80 53 L 82 54 Q 85 53 83 58 L 85 57 L 86 63 Q 85 66 88 65 L 88 68 L 84 71 L 84 73 L 73 84 L 72 83 L 62 93 Q 63 96 60 95 L 60 101 L 62 101 L 64 105 L 66 104 L 71 105 L 70 104 L 72 104 L 76 100 L 75 99 L 81 94 L 88 87 Q 86 85 89 84 Q 93 86 90 88 L 93 88 L 92 90 L 109 105 L 111 104 L 115 105 L 119 100 Q 121 94 117 95 L 116 92 L 113 88 L 112 89 L 109 86 Q 108 83 107 85 L 105 83 Q 104 80 103 82 L 101 80 Q 99 75 98 78 L 96 76 L 95 76 L 95 75 L 93 74 L 93 76 L 92 75 Q 87 77 90 79 L 87 81 L 79 89 L 80 90 L 75 94 L 69 101 L 67 100 Q 65 102 64 100 L 65 97 L 80 83 L 79 82 Q 80 79 84 79 L 83 78 L 90 71 L 91 72 L 97 65 L 97 63 L 98 62 L 98 51 L 100 51 L 100 50 L 103 48 L 102 47 Q 103 44 105 46 L 109 42 L 110 43 L 117 36 L 116 35 L 118 35 Q 120 34 118 33 Q 119 30 121 32 L 126 28 L 101 54 L 102 57 Q 103 59 108 59 L 106 60 L 110 64 L 113 64 L 128 50 L 130 49 L 127 51 L 122 56 L 123 57 L 120 59 L 115 64 L 116 65 L 115 64 L 114 65 L 103 65 L 103 67 L 101 66 L 101 68 L 100 67 L 97 68 L 95 72 Q 94 74 97 73 L 96 75 L 99 75 L 98 74 Q 100 69 102 72 L 102 71 L 104 71 L 107 71 L 106 70 L 106 69 Q 112 68 116 70 L 123 63 L 122 62 L 125 60 L 130 55 L 129 54 L 132 52 L 136 48 L 135 47 L 140 43 Q 141 37 138 36 Q 139 33 136 34 L 136 32 L 135 32 L 135 31 Q 134 28 133 30 L 133 28 L 130 28 Q 131 25 129 26 L 128 23 L 126 24 L 123 23 Z M 109 70 L 109 71 L 113 71 L 109 70 Z M 111 105 L 111 106 L 113 106 L 111 105 Z " /><path fill="rgb(235,239,249)" stroke="rgb(235,239,249)" stroke-width="1" opacity="1" d="M 133.5 36 L 134 38 L 132.5 38 L 122 48.5 L 120.5 51 L 111.5 59 L 133.5 36 Z " /><path fill="rgb(235,239,249)" stroke="rgb(235,239,249)" stroke-width="1" opacity="1" d="M 111.5 38 L 109.5 41 L 111.5 38 Z " /><path fill="rgb(235,239,249)" stroke="rgb(235,239,249)" stroke-width="1" opacity="1" d="M 125.5 39 L 124.5 41 L 125.5 39 Z " /><path fill="rgb(235,239,249)" stroke="rgb(235,239,249)" stroke-width="1" opacity="1" d="M 68.5 40 L 70 42.5 L 68 41.5 L 68.5 40 Z " /><path fill="rgb(235,239,249)" stroke="rgb(235,239,249)" stroke-width="1" opacity="1" d="M 136.5 40 L 134.5 43 L 136.5 40 Z " /><path fill="rgb(235,239,249)" stroke="rgb(235,239,249)" stroke-width="1" opacity="1" d="M 71.5 41 L 74 45 L 78 47.5 L 76.5 47 L 72 43.5 L 71.5 41 Z " /><path fill="rgb(235,239,249)" stroke="rgb(235,239,249)" stroke-width="1" opacity="1" d="M 118.5 46 L 117.5 48 L 118.5 46 Z " /><path fill="rgb(235,239,249)" stroke="rgb(235,239,249)" stroke-width="1" opacity="1" d="M 75.5 48 L 81 51.5 L 79.5 52 L 75.5 48 Z " /><path fill="rgb(235,239,249)" stroke="rgb(235,239,249)" stroke-width="1" opacity="1" d="M 111.5 53 L 110.5 55 L 111.5 53 Z " /><path fill="rgb(235,239,249)" stroke="rgb(235,239,249)" stroke-width="1" opacity="1" d="M 94.5 79 L 97.5 83 Q 98.7 80.8 100 83.5 L 99.5 85 L 102.5 87 L 104 86.5 L 106.5 90 Q 107.8 87.8 109 90.5 L 112.5 95 L 114 94.5 L 114 96.5 L 112.5 100 L 110.5 100 L 100.5 90 L 99 90.5 Q 101.2 89.3 98.5 88 L 97.5 89 L 91 82.5 Q 90.3 80.3 92.5 81 L 94.5 79 Z " /><path fill="rgb(255,72,71)" stroke="rgb(255,72,71)" stroke-width="1" opacity="1" d="M 124.5 24 L 128 25.5 Q 129 30 126.5 31 L 124 32.5 L 114.5 43 L 111.5 45 L 104 53.5 L 105.5 54 L 129.5 30 L 132.5 30 L 135 33.5 L 110 59.5 L 111.5 60 L 135.5 36 L 138.5 36 Q 140.8 36.8 140 40.5 L 118 67 Q 114.3 70.8 103.5 69 L 98.5 73 L 96.5 73 L 98 70.5 Q 97.3 68.3 99.5 69 Q 103 65 112.5 67 L 120 60.5 L 138 39.5 L 136.5 38 L 112.5 62 Q 108.8 62.8 108 60.5 Q 108.7 54.2 113.5 52 L 117 49.5 L 126.5 39 L 129 37.5 Q 128.3 35.3 130.5 36 L 132 32 L 130.5 32 L 106.5 56 L 103.5 56 Q 101.3 55.3 102 51.5 L 125.5 27 L 123.5 27 L 99 48.5 Q 96.5 52 98 59.5 L 96 64.5 L 78.5 82 L 64 95.5 Q 63 101 66.5 102 Q 72.6 100.6 75 95.5 L 92.5 76 L 96.5 77 L 117 94.5 L 118 98.5 L 114.5 103 L 110.5 104 L 88.5 84 L 70.5 103 L 65.5 104 L 62 101.5 L 61 96.5 L 84.5 72 L 88 69.5 L 87 61.5 L 83 53.5 L 75 43 L 63.5 35 Q 57.8 31.8 47.5 33 L 43 35.5 L 80 72.5 L 78.5 74 L 41 37.5 L 40 35.5 Q 44 29 55.5 30 Q 71.3 34.3 80 45.5 L 88 57.5 L 90 66 L 94 63.5 L 96 56.5 L 95 51.5 Q 96.4 45.4 101.5 43 L 124.5 24 Z M 94 78 L 91 83 L 112 102 L 114 101 Q 116 100 115 96 L 94 78 Z " /><path fill="rgb(255,72,71)" stroke="rgb(255,72,71)" stroke-width="1" opacity="1" d="M 59.5 37 Q 70.5 41.5 77 50.5 L 81 58 L 77 55.5 L 68.5 45 L 58 38.5 L 59.5 37 Z " /><path fill="rgb(251,179,185)" stroke="rgb(251,179,185)" stroke-width="1" opacity="1" d="M 120.5 26 L 118.5 29 L 120.5 26 Z " /><path fill="rgb(251,179,185)" stroke="rgb(251,179,185)" stroke-width="1" opacity="1" d="M 128.5 26 L 129 29 L 132 29.5 L 129.5 30 L 104.5 54 L 104.5 53 L 111 47.5 Q 108.8 46.3 111.5 45 Q 112.8 47.3 114 44.5 L 113.5 43 L 114.5 44 L 125 33.5 Q 122.7 32.3 125.5 31 Q 127.3 33.7 129 29.5 L 128.5 26 Z " /><path fill="rgb(251,179,185)" stroke="rgb(251,179,185)" stroke-width="1" opacity="1" d="M 123.5 27 L 120.5 31 L 123.5 27 Z " /><path fill="rgb(251,179,185)" stroke="rgb(251,179,185)" stroke-width="1" opacity="1" d="M 42.5 32 L 40.5 35 L 42.5 32 Z " /><path fill="rgb(251,179,185)" stroke="rgb(251,179,185)" stroke-width="1" opacity="1" d="M 113.5 32 L 109.5 37 L 113.5 32 Z " /><path fill="rgb(251,179,185)" stroke="rgb(251,179,185)" stroke-width="1" opacity="1" d="M 130.5 32 L 132 32.5 L 107.5 56 L 130.5 32 Z " /><path fill="rgb(251,179,185)" stroke="rgb(251,179,185)" stroke-width="1" opacity="1" d="M 65.5 33 L 66.5 35 L 65.5 33 Z " /><path fill="rgb(251,179,185)" stroke="rgb(251,179,185)" stroke-width="1" opacity="1" d="M 115.5 34 L 112.5 38 L 115.5 34 Z " /><path fill="rgb(251,179,185)" stroke="rgb(251,179,185)" stroke-width="1" opacity="1" d="M 131.5 34 L 130.5 36 L 131.5 34 Z " /><path fill="rgb(251,179,185)" stroke="rgb(251,179,185)" stroke-width="1" opacity="1" d="M 62.5 35 L 65 36.5 L 63.5 36 L 62.5 35 Z " /><path fill="rgb(251,179,185)" stroke="rgb(251,179,185)" stroke-width="1" opacity="1" d="M 71.5 37 L 72.5 39 L 71.5 37 Z " /><path fill="rgb(251,179,185)" stroke="rgb(251,179,185)" stroke-width="1" opacity="1" d="M 128.5 37 L 127.5 39 L 128.5 37 Z " /><path fill="rgb(251,179,185)" stroke="rgb(251,179,185)" stroke-width="1" opacity="1" d="M 68.5 38 L 70.5 41 L 68.5 38 Z " /><path fill="rgb(251,179,185)" stroke="rgb(251,179,185)" stroke-width="1" opacity="1" d="M 132.5 38 L 122.5 49 L 132.5 38 Z " /><path fill="rgb(251,179,185)" stroke="rgb(251,179,185)" stroke-width="1" opacity="1" d="M 136.5 38 L 137.5 40 L 136.5 39 L 112.5 63 Q 108.8 63.8 108 61.5 L 109.5 62 L 112.5 62 L 136.5 38 Z " /><path fill="rgb(251,179,185)" stroke="rgb(251,179,185)" stroke-width="1" opacity="1" d="M 105.5 39 L 102.5 43 L 105.5 39 Z " /><path fill="rgb(251,179,185)" stroke="rgb(251,179,185)" stroke-width="1" opacity="1" d="M 66.5 40 L 67.5 42 L 66.5 40 Z " /><path fill="rgb(251,179,185)" stroke="rgb(251,179,185)" stroke-width="1" opacity="1" d="M 108.5 40 L 104.5 45 L 108.5 40 Z " /><path fill="rgb(251,179,185)" stroke="rgb(251,179,185)" stroke-width="1" opacity="1" d="M 139.5 41 L 138.5 43 L 139.5 41 Z " /><path fill="rgb(251,179,185)" stroke="rgb(251,179,185)" stroke-width="1" opacity="1" d="M 70.5 43 L 74.5 48 L 70.5 43 Z " /><path fill="rgb(251,179,185)" stroke="rgb(251,179,185)" stroke-width="1" opacity="1" d="M 133.5 44 L 130.5 48 L 133.5 44 Z " /><path fill="rgb(251,179,185)" stroke="rgb(251,179,185)" stroke-width="1" opacity="1" d="M 49.5 45 L 73.5 70 L 49.5 45 Z " /><path fill="rgb(251,179,185)" stroke="rgb(251,179,185)" stroke-width="1" opacity="1" d="M 68.5 45 L 72.5 50 L 68.5 45 Z " /><path fill="rgb(251,179,185)" stroke="rgb(251,179,185)" stroke-width="1" opacity="1" d="M 80.5 46 L 81.5 48 L 80.5 46 Z " /><path fill="rgb(251,179,185)" stroke="rgb(251,179,185)" stroke-width="1" opacity="1" d="M 100.5 47 L 99.5 49 L 100.5 47 Z " /><path fill="rgb(251,179,185)" stroke="rgb(251,179,185)" stroke-width="1" opacity="1" d="M 134.5 47 L 132.5 50 L 134.5 47 Z " /><path fill="rgb(251,179,185)" stroke="rgb(251,179,185)" stroke-width="1" opacity="1" d="M 78.5 48 L 80.5 51 L 78.5 48 Z " /><path fill="rgb(251,179,185)" stroke="rgb(251,179,185)" stroke-width="1" opacity="1" d="M 116.5 49 L 114.5 52 L 116.5 49 Z " /><path fill="rgb(251,179,185)" stroke="rgb(251,179,185)" stroke-width="1" opacity="1" d="M 83.5 50 L 84.5 52 L 83.5 50 Z " /><path fill="rgb(251,179,185)" stroke="rgb(251,179,185)" stroke-width="1" opacity="1" d="M 77.5 51 L 78.5 53 L 77.5 51 Z " /><path fill="rgb(251,179,185)" stroke="rgb(251,179,185)" stroke-width="1" opacity="1" d="M 119.5 51 L 111.5 60 L 110 59.5 L 119.5 51 Z " /><path fill="rgb(251,179,185)" stroke="rgb(251,179,185)" stroke-width="1" opacity="1" d="M 127.5 51 L 123.5 56 L 127.5 51 Z " /><path fill="rgb(251,179,185)" stroke="rgb(251,179,185)" stroke-width="1" opacity="1" d="M 60.5 52 L 79.5 72 L 60.5 52 Z " /><path fill="rgb(251,179,185)" stroke="rgb(251,179,185)" stroke-width="1" opacity="1" d="M 81.5 52 L 82.5 54 L 81.5 52 Z " /><path fill="rgb(251,179,185)" stroke="rgb(251,179,185)" stroke-width="1" opacity="1" d="M 75.5 53 L 76.5 55 L 75.5 53 Z " /><path fill="rgb(251,179,185)" stroke="rgb(251,179,185)" stroke-width="1" opacity="1" d="M 79.5 54 L 80.5 56 L 79.5 54 Z " /><path fill="rgb(251,179,185)" stroke="rgb(251,179,185)" stroke-width="1" opacity="1" d="M 128.5 54 L 124.5 59 L 128.5 54 Z " /><path fill="rgb(251,179,185)" stroke="rgb(251,179,185)" stroke-width="1" opacity="1" d="M 102.5 55 L 106 56.5 L 103.5 57 L 102.5 55 Z " /><path fill="rgb(251,179,185)" stroke="rgb(251,179,185)" stroke-width="1" opacity="1" d="M 77.5 56 L 81 58.5 L 79.5 59 L 77.5 56 Z " /><path fill="rgb(251,179,185)" stroke="rgb(251,179,185)" stroke-width="1" opacity="1" d="M 119.5 60 L 116.5 64 L 119.5 60 Z " /><path fill="rgb(251,179,185)" stroke="rgb(251,179,185)" stroke-width="1" opacity="1" d="M 121.5 62 L 118.5 66 L 121.5 62 Z " /><path fill="rgb(251,179,185)" stroke="rgb(251,179,185)" stroke-width="1" opacity="1" d="M 93.5 63 L 91.5 66 Q 89.3 66.8 90 64.5 Q 91.8 66.1 93.5 63 Z " /><path fill="rgb(251,179,185)" stroke="rgb(251,179,185)" stroke-width="1" opacity="1" d="M 95.5 65 L 90.5 71 L 95.5 65 Z " /><path fill="rgb(251,179,185)" stroke="rgb(251,179,185)" stroke-width="1" opacity="1" d="M 103.5 66 L 113 66.5 L 103.5 67 L 103.5 66 Z " /><path fill="rgb(251,179,185)" stroke="rgb(251,179,185)" stroke-width="1" opacity="1" d="M 116.5 67 L 115.5 69 L 116.5 67 Z " /><path fill="rgb(251,179,185)" stroke="rgb(251,179,185)" stroke-width="1" opacity="1" d="M 87.5 69 L 85.5 72 L 87.5 69 Z " /><path fill="rgb(251,179,185)" stroke="rgb(251,179,185)" stroke-width="1" opacity="1" d="M 97.5 70 L 96.5 72 L 97.5 70 Z " /><path fill="rgb(251,179,185)" stroke="rgb(251,179,185)" stroke-width="1" opacity="1" d="M 91.5 76 L 90.5 78 L 91.5 76 Z " /><path fill="rgb(251,179,185)" stroke="rgb(251,179,185)" stroke-width="1" opacity="1" d="M 93.5 78 L 92.5 80 L 93.5 78 Z " /><path fill="rgb(251,179,185)" stroke="rgb(251,179,185)" stroke-width="1" opacity="1" d="M 98.5 78 L 100.5 81 L 98.5 78 Z " /><path fill="rgb(251,179,185)" stroke="rgb(251,179,185)" stroke-width="1" opacity="1" d="M 96.5 80 L 97.5 82 L 96.5 80 Z " /><path fill="rgb(251,179,185)" stroke="rgb(251,179,185)" stroke-width="1" opacity="1" d="M 77.5 82 L 64.5 96 L 77.5 82 Z " /><path fill="rgb(251,179,185)" stroke="rgb(251,179,185)" stroke-width="1" opacity="1" d="M 86.5 82 L 80.5 89 L 86.5 82 Z " /><path fill="rgb(251,179,185)" stroke="rgb(251,179,185)" stroke-width="1" opacity="1" d="M 103.5 82 L 104.5 84 L 103.5 82 Z " /><path fill="rgb(251,179,185)" stroke="rgb(251,179,185)" stroke-width="1" opacity="1" d="M 100.5 83 L 102.5 86 L 100.5 83 Z " /><path fill="rgb(251,179,185)" stroke="rgb(251,179,185)" stroke-width="1" opacity="1" d="M 71.5 84 L 62.5 94 L 71.5 84 Z " /><path fill="rgb(251,179,185)" stroke="rgb(251,179,185)" stroke-width="1" opacity="1" d="M 107.5 85 L 108.5 87 L 107.5 85 Z " /><path fill="rgb(251,179,185)" stroke="rgb(251,179,185)" stroke-width="1" opacity="1" d="M 86.5 86 L 80.5 93 L 86.5 86 Z " /><path fill="rgb(251,179,185)" stroke="rgb(251,179,185)" stroke-width="1" opacity="1" d="M 104.5 86 L 106.5 89 L 104.5 86 Z " /><path fill="rgb(251,179,185)" stroke="rgb(251,179,185)" stroke-width="1" opacity="1" d="M 92.5 87 L 110 103.5 L 108.5 104 L 92.5 87 Z " /><path fill="rgb(251,179,185)" stroke="rgb(251,179,185)" stroke-width="1" opacity="1" d="M 112.5 89 L 116.5 94 L 112.5 89 Z " /><path fill="rgb(251,179,185)" stroke="rgb(251,179,185)" stroke-width="1" opacity="1" d="M 109.5 90 L 112.5 94 L 109.5 90 Z " /><path fill="rgb(251,179,185)" stroke="rgb(251,179,185)" stroke-width="1" opacity="1" d="M 100.5 91 L 109.5 101 L 100.5 91 Z " /><path fill="rgb(251,179,185)" stroke="rgb(251,179,185)" stroke-width="1" opacity="1" d="M 74.5 95 L 69.5 101 L 74.5 95 Z " /><path fill="rgb(251,179,185)" stroke="rgb(251,179,185)" stroke-width="1" opacity="1" d="M 74.5 99 L 71.5 103 L 74.5 99 Z " /><path fill="rgb(251,179,185)" stroke="rgb(251,179,185)" stroke-width="1" opacity="1" d="M 114.5 99 L 113.5 101 L 114.5 99 Z " /><path fill="rgb(251,179,185)" stroke="rgb(251,179,185)" stroke-width="1" opacity="1" d="M 116.5 101 L 114.5 104 L 113 103.5 L 116.5 101 Z " /></svg>